<svg width="100%" viewBox="0 0 690 430" role="img" xmlns="http://www.w3.org/2000/svg" style="">
  <title style="fill:rgb(0, 0, 0);stroke:none;color:rgb(0, 0, 0);stroke-width:1px;stroke-linecap:butt;stroke-linejoin:miter;opacity:1;font-family:&quot;Anthropic Sans&quot;, -apple-system, BlinkMacSystemFont, &quot;Segoe UI&quot;, sans-serif;font-size:16px;font-weight:400;text-anchor:start;dominant-baseline:auto">נמרוד 9000 - מצב גיהנום</title>
  <desc style="fill:rgb(0, 0, 0);stroke:none;color:rgb(0, 0, 0);stroke-width:1px;stroke-linecap:butt;stroke-linejoin:miter;opacity:1;font-family:&quot;Anthropic Sans&quot;, -apple-system, BlinkMacSystemFont, &quot;Segoe UI&quot;, sans-serif;font-size:16px;font-weight:400;text-anchor:start;dominant-baseline:auto">תוכנת הבינה המלאכותית נמרוד 9000 ממצב גיהנום עם עיניים אדומות וגל קול אדום</desc>

  <rect x="0" y="0" width="680" height="420" fill="none" rx="12"/>
  <!-- Scanlines texture -->
  <defs>
    <pattern id="scanlines" x="0" y="0" width="2" height="4" patternUnits="userSpaceOnUse">
      <rect x="0" y="0" width="2" height="1" fill="#ff2200" opacity="0.04"/>
    </pattern>
  </defs>
  <rect x="0" y="0" width="680" height="420" fill="url(#scanlines)" rx="12" style="stroke:none;color:rgb(0, 0, 0);stroke-width:1px;stroke-linecap:butt;stroke-linejoin:miter;opacity:1;font-family:&quot;Anthropic Sans&quot;, -apple-system, BlinkMacSystemFont, &quot;Segoe UI&quot;, sans-serif;font-size:16px;font-weight:400;text-anchor:start;dominant-baseline:auto"/>

  <!-- Left eye -->
  <rect x="215" y="110" width="95" height="85" fill="#cc1a00" rx="4" style="fill:rgb(204, 26, 0);stroke:none;color:rgb(0, 0, 0);stroke-width:1px;stroke-linecap:butt;stroke-linejoin:miter;opacity:1;font-family:&quot;Anthropic Sans&quot;, -apple-system, BlinkMacSystemFont, &quot;Segoe UI&quot;, sans-serif;font-size:16px;font-weight:400;text-anchor:start;dominant-baseline:auto"/>
  <rect x="225" y="120" width="75" height="65" fill="#ff2200" rx="2" style="fill:rgb(255, 34, 0);stroke:none;color:rgb(0, 0, 0);stroke-width:1px;stroke-linecap:butt;stroke-linejoin:miter;opacity:1;font-family:&quot;Anthropic Sans&quot;, -apple-system, BlinkMacSystemFont, &quot;Segoe UI&quot;, sans-serif;font-size:16px;font-weight:400;text-anchor:start;dominant-baseline:auto"/>
  <!-- Eye glow inner -->
  <rect x="238" y="132" width="49" height="41" fill="#ff5533" rx="1" style="fill:rgb(255, 85, 51);stroke:none;color:rgb(0, 0, 0);stroke-width:1px;stroke-linecap:butt;stroke-linejoin:miter;opacity:1;font-family:&quot;Anthropic Sans&quot;, -apple-system, BlinkMacSystemFont, &quot;Segoe UI&quot;, sans-serif;font-size:16px;font-weight:400;text-anchor:start;dominant-baseline:auto"/>

  <!-- Right eye -->
  <rect x="370" y="110" width="95" height="85" fill="#cc1a00" rx="4" style="fill:rgb(204, 26, 0);stroke:none;color:rgb(0, 0, 0);stroke-width:1px;stroke-linecap:butt;stroke-linejoin:miter;opacity:1;font-family:&quot;Anthropic Sans&quot;, -apple-system, BlinkMacSystemFont, &quot;Segoe UI&quot;, sans-serif;font-size:16px;font-weight:400;text-anchor:start;dominant-baseline:auto"/>
  <rect x="380" y="120" width="75" height="65" fill="#ff2200" rx="2" style="fill:rgb(255, 34, 0);stroke:none;color:rgb(0, 0, 0);stroke-width:1px;stroke-linecap:butt;stroke-linejoin:miter;opacity:1;font-family:&quot;Anthropic Sans&quot;, -apple-system, BlinkMacSystemFont, &quot;Segoe UI&quot;, sans-serif;font-size:16px;font-weight:400;text-anchor:start;dominant-baseline:auto"/>
  <!-- Eye glow inner -->
  <rect x="393" y="132" width="49" height="41" fill="#ff5533" rx="1" style="fill:rgb(255, 85, 51);stroke:none;color:rgb(0, 0, 0);stroke-width:1px;stroke-linecap:butt;stroke-linejoin:miter;opacity:1;font-family:&quot;Anthropic Sans&quot;, -apple-system, BlinkMacSystemFont, &quot;Segoe UI&quot;, sans-serif;font-size:16px;font-weight:400;text-anchor:start;dominant-baseline:auto"/>

  <!-- Sound wave / smile - waveform path -->
  <!-- Base line -->
  <polyline fill="none" stroke="#cc1a00" stroke-width="1.5" stroke-linecap="round" stroke-linejoin="round" points="&#10;      155,295&#10;      165,295 168,272 171,318 174,278 177,308 180,290&#10;      183,280 186,310 189,285 192,302 195,290&#10;      198,275 201,315 204,282 207,305 210,290&#10;      213,278 216,312 219,286 222,304 225,292&#10;      228,278 231,314 234,284 237,308 240,290&#10;      243,277 246,316 249,283 252,306 255,292&#10;      258,280 261,312 264,287 267,305 270,291&#10;      273,279 276,315 279,285 282,307 285,292&#10;      288,280 291,313 294,286 297,306 300,292&#10;      303,278 306,315 309,283 312,309 315,290&#10;      318,279 321,314 324,285 327,307 330,291&#10;      333,278 336,316 339,283 342,309 345,290&#10;      348,281 351,312 354,287 357,306 360,292&#10;      363,280 366,313 369,286 372,308 375,291&#10;      378,279 381,315 384,284 387,307 390,291&#10;      393,278 396,316 399,283 402,308 405,291&#10;      408,280 411,313 414,286 417,306 420,292&#10;      423,279 426,314 429,284 432,308 435,291&#10;      438,281 441,312 444,287 447,305 450,291&#10;      453,280 456,313 459,285 462,307 465,291&#10;      468,278 471,315 474,283 477,309 480,290&#10;      483,281 486,312 489,287 492,306 495,292&#10;      498,279 501,314 504,284 507,308 510,292&#10;      513,282 516,310 519,288 522,305&#10;      525,295&#10;    " style="fill:none;stroke:rgb(204, 26, 0);color:rgb(0, 0, 0);stroke-width:1.5px;stroke-linecap:round;stroke-linejoin:round;opacity:1;font-family:&quot;Anthropic Sans&quot;, -apple-system, BlinkMacSystemFont, &quot;Segoe UI&quot;, sans-serif;font-size:16px;font-weight:400;text-anchor:start;dominant-baseline:auto"/>

  <!-- Second brighter line on top -->
  <polyline fill="none" stroke="#ff3311" stroke-width="2" stroke-linecap="round" stroke-linejoin="round" points="&#10;      160,295&#10;      168,275 172,315 176,280 180,305 184,292&#10;      188,278 192,308 196,284 200,303 204,291&#10;      208,276 212,314 216,283 220,306 224,291&#10;      228,279 232,313 236,285 240,307 244,292&#10;      248,278 252,315 256,282 260,308 264,291&#10;      268,280 272,312 276,286 280,306 284,292&#10;      288,279 292,314 296,284 300,308 304,292&#10;      308,278 312,315 316,283 320,308 324,291&#10;      328,280 332,313 336,285 340,307 344,292&#10;      348,279 352,314 356,284 360,308 364,291&#10;      368,281 372,312 376,287 380,306 384,292&#10;      388,279 392,315 396,283 400,308 404,291&#10;      408,280 412,313 416,286 420,307 424,292&#10;      428,279 432,314 436,285 440,308 444,291&#10;      448,281 452,312 456,287 460,306 464,292&#10;      468,278 472,315 476,283 480,308 484,291&#10;      488,280 492,312 496,286 500,307 504,292&#10;      508,279 512,314 516,284 520,290&#10;      525,295&#10;    " style="fill:none;stroke:rgb(255, 51, 17);color:rgb(0, 0, 0);stroke-width:2px;stroke-linecap:round;stroke-linejoin:round;opacity:1;font-family:&quot;Anthropic Sans&quot;, -apple-system, BlinkMacSystemFont, &quot;Segoe UI&quot;, sans-serif;font-size:16px;font-weight:400;text-anchor:start;dominant-baseline:auto"/>


</svg>